# xmcd CD database file
#
# Track frame offsets:
#	150
#	66052
#	109532
#	144485
#	187032
#	226712
#
# Disc length: 3831 seconds
#
# Revision: 0
# Processed by: cddbd v1.5.2PL0 Copyright (c) Steve Scherf et al.
# Submitted via: CDex 1.50
#
DISCID=480ef506
DTITLE=Arthur Rhames - Live From Soundscape
DYEAR=1981
DGENRE=Jazz
TTITLE0=Giant Steps
TTITLE1=42nd Street
TTITLE2=I Want Jesus To Walk With Me
TTITLE3=I Got Rhythm
TTITLE4=Bessie's Blues
TTITLE5=Moment's Notice
EXTD=YEAR: 1981
EXTT0=
EXTT1=
EXTT2=
EXTT3=
EXTT4=
EXTT5=
PLAYORDER=
